<?xml version="1.0" encoding="iso-8859-1"?>
<!-- Uploaded to: SVG Repo, www.svgrepo.com, Generator: SVG Repo Mixer Tools -->
<!DOCTYPE svg PUBLIC "-//W3C//DTD SVG 1.1//EN" "http://www.w3.org/Graphics/SVG/1.1/DTD/svg11.dtd">
<svg height="800px" width="800px" version="1.1" id="Capa_1" xmlns="http://www.w3.org/2000/svg" xmlns:xlink="http://www.w3.org/1999/xlink" 
	 viewBox="0 0 395.024 395.024" xml:space="preserve">
<g>
	<path style="fill:#211915;" d="M394.91,229.818l-4.136-42.421c-1.995-20.467-13.039-38.638-29.933-49.721
		c2.857-2.144,4.471-5.75,3.888-9.527c-0.842-5.459-5.946-9.205-11.408-8.358l-23.06,3.558
		c-47.529-17.26-127.164-26.702-235.951,27.036c-10.438,5.155-21.633,8.53-33.275,10.029c-24.36,3.136-41.809,12.833-51.86,28.822
		c-16.428,26.133-5.878,58.798-5.421,60.176c1.357,4.09,5.182,6.851,9.491,6.851h33.208c4.426,16.642,19.619,28.942,37.635,28.942
		s33.209-12.3,37.635-28.942H293.33c4.426,16.642,19.619,28.942,37.635,28.942s33.209-12.3,37.635-28.942h2.319
		c6.786,0,13.293-2.883,17.853-7.908C393.332,243.327,395.569,236.572,394.91,229.818z M349.908,246.262
		c0,10.445-8.498,18.942-18.943,18.942c-10.445,0-18.943-8.497-18.943-18.942c0-10.445,8.498-18.943,18.943-18.943
		C341.41,227.319,349.908,235.817,349.908,246.262z M103.032,246.262c0,10.445-8.498,18.942-18.943,18.942
		s-18.943-8.497-18.943-18.942c0-10.445,8.498-18.943,18.943-18.943S103.032,235.817,103.032,246.262z M368.601,236.262
		c-4.426-16.643-19.619-28.943-37.635-28.943s-33.209,12.301-37.635,28.943H121.724c-4.426-16.643-19.619-28.943-37.635-28.943
		s-33.209,12.301-37.635,28.943H21.136c-1.572-8.758-2.728-24.221,5.029-36.474c6.732-10.635,19.323-17.209,37.424-19.539
		c13.839-1.782,27.155-5.797,39.579-11.934c102.926-50.841,177.047-41.996,220.72-26.003c0.961,0.561,2.018,0.96,3.132,1.176
		c7.254,2.804,13.612,5.781,19.055,8.665c13.978,7.407,23.247,21.308,24.795,37.184l4.136,42.422
		c0.153,1.574-0.589,2.653-1.045,3.156c-0.457,0.503-1.458,1.347-3.041,1.347H368.601z"/>
</g>
</svg>